<svg width="604" height="66" viewBox="0 0 604 66" fill="none" xmlns="http://www.w3.org/2000/svg">
<path fill-rule="evenodd" clip-rule="evenodd" d="M7.62869 25.4964C8.1079 25.4964 8.49638 25.1079 8.49638 24.6287C8.49638 24.1495 8.1079 23.761 7.62869 23.761C7.14948 23.761 6.761 24.1495 6.761 24.6287C6.761 25.1079 7.14948 25.4964 7.62869 25.4964ZM7.62869 27.2574C9.08047 27.2574 10.2574 26.0805 10.2574 24.6287C10.2574 23.1769 9.08047 22 7.62869 22C6.1769 22 5 23.1769 5 24.6287C5 26.0805 6.1769 27.2574 7.62869 27.2574Z" fill="url(#paint0_linear_4102_822)"/>
<path fill-rule="evenodd" clip-rule="evenodd" d="M17.6287 54.4964C18.1079 54.4964 18.4964 54.1079 18.4964 53.6287C18.4964 53.1495 18.1079 52.761 17.6287 52.761C17.1495 52.761 16.761 53.1495 16.761 53.6287C16.761 54.1079 17.1495 54.4964 17.6287 54.4964ZM17.6287 56.2574C19.0805 56.2574 20.2574 55.0805 20.2574 53.6287C20.2574 52.1769 19.0805 51 17.6287 51C16.1769 51 15 52.1769 15 53.6287C15 55.0805 16.1769 56.2574 17.6287 56.2574Z" fill="url(#paint1_linear_4102_822)"/>
<path fill-rule="evenodd" clip-rule="evenodd" d="M54.943 53.1251C56.1481 53.1251 57.1251 52.1481 57.1251 50.943C57.1251 49.7379 56.1481 48.761 54.943 48.761C53.7379 48.761 52.761 49.7379 52.761 50.943C52.761 52.1481 53.7379 53.1251 54.943 53.1251ZM54.943 54.8861C57.1207 54.8861 58.8861 53.1207 58.8861 50.943C58.8861 48.7654 57.1207 47 54.943 47C52.7654 47 51 48.7654 51 50.943C51 53.1207 52.7654 54.8861 54.943 54.8861Z" fill="url(#paint2_linear_4102_822)"/>
<path fill-rule="evenodd" clip-rule="evenodd" d="M57.0353 12.0334L55.761 12.7692V14.2407L57.0353 14.9764L58.3097 14.2407V12.7692L57.0353 12.0334ZM60.0707 11.7525L57.0353 10L54 11.7525V15.2574L57.0353 17.0098L60.0707 15.2574V11.7525Z" fill="url(#paint3_linear_4102_822)"/>
<path fill-rule="evenodd" clip-rule="evenodd" d="M5 38.6107L3.32065 39.5554V41.4446L5 42.3893L6.67935 41.4446V39.5554L5 38.6107ZM9 38.25L5 36L1 38.25V42.75L5 45L9 42.75V38.25Z" fill="url(#paint4_linear_4102_822)"/>
<path fill-rule="evenodd" clip-rule="evenodd" d="M25.3582 6.66391V4.47334L27.2553 3.37805L29.1524 4.47334V6.66391L27.2553 7.7592L25.3582 6.66391Z" fill="url(#paint5_linear_4102_822)"/>
<g filter="url(#filter0_d_4102_822)">
<circle cx="33" cy="31" r="21" fill="url(#paint6_linear_4102_822)"/>
</g>
<path fill-rule="evenodd" clip-rule="evenodd" d="M33 42.25C39.2132 42.25 44.25 37.2132 44.25 31C44.25 24.7868 39.2132 19.75 33 19.75C26.7868 19.75 21.75 24.7868 21.75 31C21.75 37.2132 26.7868 42.25 33 42.25Z" stroke="white" stroke-width="1.5" stroke-linecap="round" stroke-linejoin="round"/>
<path fill-rule="evenodd" clip-rule="evenodd" d="M33 31.75C33.8284 31.75 34.5 31.0784 34.5 30.25C34.5 29.4216 33.8284 28.75 33 28.75C32.1716 28.75 31.5 29.4216 31.5 30.25C31.5 31.0784 32.1716 31.75 33 31.75Z" stroke="white" stroke-width="1.5" stroke-linecap="round" stroke-linejoin="round"/>
<path fill-rule="evenodd" clip-rule="evenodd" d="M37.5 36.25C37.5 37.0784 36.8284 37.75 36 37.75H30C29.1716 37.75 28.5 37.0784 28.5 36.25C28.5 35.4216 29.1716 34.75 30 34.75H36C36.8284 34.75 37.5 35.4216 37.5 36.25Z" stroke="white" stroke-width="1.5" stroke-linecap="round" stroke-linejoin="round"/>
<path d="M30.178 22.498L30.691 23.907" stroke="white" stroke-width="1.5" stroke-linecap="round" stroke-linejoin="round"/>
<path d="M25.855 26.125L27.154 26.875" stroke="white" stroke-width="1.5" stroke-linecap="round" stroke-linejoin="round"/>
<path d="M24.875 31.683L26.353 31.422" stroke="white" stroke-width="1.5" stroke-linecap="round" stroke-linejoin="round"/>
<path d="M35.822 22.498L35.309 23.907" stroke="white" stroke-width="1.5" stroke-linecap="round" stroke-linejoin="round"/>
<path d="M40.145 26.125L34.299 29.5" stroke="white" stroke-width="1.5" stroke-linecap="round" stroke-linejoin="round"/>
<path d="M41.125 31.683L39.647 31.422" stroke="white" stroke-width="1.5" stroke-linecap="round" stroke-linejoin="round"/>
<path d="M75.008 25.832C76.1813 25.832 77.2107 26.0613 78.096 26.52C78.992 26.9787 79.68 27.6347 80.16 28.488C80.6507 29.3307 80.896 30.312 80.896 31.432C80.896 32.552 80.6507 33.5333 80.16 34.376C79.68 35.208 78.992 35.8533 78.096 36.312C77.2107 36.7707 76.1813 37 75.008 37H71.104V25.832H75.008ZM74.928 35.096C76.1013 35.096 77.008 34.776 77.648 34.136C78.288 33.496 78.608 32.5947 78.608 31.432C78.608 30.2693 78.288 29.3627 77.648 28.712C77.008 28.0507 76.1013 27.72 74.928 27.72H73.344V35.096H74.928ZM81.9967 32.536C81.9967 31.64 82.1727 30.8453 82.5247 30.152C82.8874 29.4587 83.3728 28.9253 83.9808 28.552C84.5994 28.1787 85.2874 27.992 86.0448 27.992C86.7061 27.992 87.2821 28.1253 87.7728 28.392C88.2741 28.6587 88.6741 28.9947 88.9728 29.4V28.136H91.2288V37H88.9728V35.704C88.6848 36.12 88.2848 36.4667 87.7728 36.744C87.2714 37.0107 86.6901 37.144 86.0288 37.144C85.2821 37.144 84.5994 36.952 83.9808 36.568C83.3728 36.184 82.8874 35.6453 82.5247 34.952C82.1727 34.248 81.9967 33.4427 81.9967 32.536ZM88.9728 32.568C88.9728 32.024 88.8661 31.56 88.6528 31.176C88.4394 30.7813 88.1514 30.4827 87.7888 30.28C87.4261 30.0667 87.0368 29.96 86.6208 29.96C86.2048 29.96 85.8208 30.0613 85.4688 30.264C85.1168 30.4667 84.8288 30.7653 84.6048 31.16C84.3914 31.544 84.2848 32.0027 84.2848 32.536C84.2848 33.0693 84.3914 33.5387 84.6048 33.944C84.8288 34.3387 85.1168 34.6427 85.4688 34.856C85.8314 35.0693 86.2154 35.176 86.6208 35.176C87.0368 35.176 87.4261 35.0747 87.7888 34.872C88.1514 34.6587 88.4394 34.36 88.6528 33.976C88.8661 33.5813 88.9728 33.112 88.9728 32.568ZM96.8085 37.144C96.0832 37.144 95.4325 37.016 94.8565 36.76C94.2805 36.4933 93.8218 36.136 93.4805 35.688C93.1498 35.24 92.9685 34.744 92.9365 34.2H95.1925C95.2352 34.5413 95.4005 34.824 95.6885 35.048C95.9872 35.272 96.3552 35.384 96.7925 35.384C97.2192 35.384 97.5498 35.2987 97.7845 35.128C98.0298 34.9573 98.1525 34.7387 98.1525 34.472C98.1525 34.184 98.0032 33.9707 97.7045 33.832C97.4165 33.6827 96.9525 33.5227 96.3125 33.352C95.6512 33.192 95.1072 33.0267 94.6805 32.856C94.2645 32.6853 93.9018 32.424 93.5925 32.072C93.2938 31.72 93.1445 31.2453 93.1445 30.648C93.1445 30.1573 93.2832 29.7093 93.5605 29.304C93.8485 28.8987 94.2538 28.5787 94.7765 28.344C95.3098 28.1093 95.9338 27.992 96.6485 27.992C97.7045 27.992 98.5472 28.2587 99.1765 28.792C99.8058 29.3147 100.153 30.024 100.217 30.92H98.0725C98.0405 30.568 97.8912 30.2907 97.6245 30.088C97.3685 29.8747 97.0218 29.768 96.5845 29.768C96.1792 29.768 95.8645 29.8427 95.6405 29.992C95.4272 30.1413 95.3205 30.3493 95.3205 30.616C95.3205 30.9147 95.4698 31.144 95.7685 31.304C96.0672 31.4533 96.5312 31.608 97.1605 31.768C97.8005 31.928 98.3285 32.0933 98.7445 32.264C99.1605 32.4347 99.5178 32.7013 99.8165 33.064C100.126 33.416 100.286 33.8853 100.297 34.472C100.297 34.984 100.153 35.4427 99.8645 35.848C99.5872 36.2533 99.1818 36.5733 98.6485 36.808C98.1258 37.032 97.5125 37.144 96.8085 37.144ZM107.127 28.008C107.799 28.008 108.397 28.1573 108.919 28.456C109.442 28.744 109.847 29.176 110.135 29.752C110.434 30.3173 110.583 31 110.583 31.8V37H108.343V32.104C108.343 31.4 108.167 30.8613 107.815 30.488C107.463 30.104 106.983 29.912 106.375 29.912C105.757 29.912 105.266 30.104 104.903 30.488C104.551 30.8613 104.375 31.4 104.375 32.104V37H102.135V25.16H104.375V29.24C104.663 28.856 105.047 28.5573 105.527 28.344C106.007 28.12 106.541 28.008 107.127 28.008ZM114.953 29.432C115.241 29.0053 115.636 28.6587 116.137 28.392C116.649 28.1253 117.231 27.992 117.881 27.992C118.639 27.992 119.321 28.1787 119.929 28.552C120.548 28.9253 121.033 29.4587 121.385 30.152C121.748 30.8347 121.929 31.6293 121.929 32.536C121.929 33.4427 121.748 34.248 121.385 34.952C121.033 35.6453 120.548 36.184 119.929 36.568C119.321 36.952 118.639 37.144 117.881 37.144C117.22 37.144 116.639 37.016 116.137 36.76C115.647 36.4933 115.252 36.152 114.953 35.736V37H112.713V25.16H114.953V29.432ZM119.641 32.536C119.641 32.0027 119.529 31.544 119.305 31.16C119.092 30.7653 118.804 30.4667 118.441 30.264C118.089 30.0613 117.705 29.96 117.289 29.96C116.884 29.96 116.5 30.0667 116.137 30.28C115.785 30.4827 115.497 30.7813 115.273 31.176C115.06 31.5707 114.953 32.0347 114.953 32.568C114.953 33.1013 115.06 33.5653 115.273 33.96C115.497 34.3547 115.785 34.6587 116.137 34.872C116.5 35.0747 116.884 35.176 117.289 35.176C117.705 35.176 118.089 35.0693 118.441 34.856C118.804 34.6427 119.092 34.3387 119.305 33.944C119.529 33.5493 119.641 33.08 119.641 32.536ZM127.493 37.144C126.64 37.144 125.872 36.9573 125.189 36.584C124.506 36.2 123.968 35.6613 123.573 34.968C123.189 34.2747 122.997 33.4747 122.997 32.568C122.997 31.6613 123.194 30.8613 123.589 30.168C123.994 29.4747 124.544 28.9413 125.237 28.568C125.93 28.184 126.704 27.992 127.557 27.992C128.41 27.992 129.184 28.184 129.877 28.568C130.57 28.9413 131.114 29.4747 131.509 30.168C131.914 30.8613 132.117 31.6613 132.117 32.568C132.117 33.4747 131.909 34.2747 131.493 34.968C131.088 35.6613 130.533 36.2 129.829 36.584C129.136 36.9573 128.357 37.144 127.493 37.144ZM127.493 35.192C127.898 35.192 128.277 35.096 128.629 34.904C128.992 34.7013 129.28 34.4027 129.493 34.008C129.706 33.6133 129.813 33.1333 129.813 32.568C129.813 31.7253 129.589 31.08 129.141 30.632C128.704 30.1733 128.165 29.944 127.525 29.944C126.885 29.944 126.346 30.1733 125.909 30.632C125.482 31.08 125.269 31.7253 125.269 32.568C125.269 33.4107 125.477 34.0613 125.893 34.52C126.32 34.968 126.853 35.192 127.493 35.192ZM133.184 32.536C133.184 31.64 133.36 30.8453 133.712 30.152C134.075 29.4587 134.56 28.9253 135.168 28.552C135.787 28.1787 136.475 27.992 137.232 27.992C137.894 27.992 138.47 28.1253 138.96 28.392C139.462 28.6587 139.862 28.9947 140.16 29.4V28.136H142.416V37H140.16V35.704C139.872 36.12 139.472 36.4667 138.96 36.744C138.459 37.0107 137.878 37.144 137.216 37.144C136.47 37.144 135.787 36.952 135.168 36.568C134.56 36.184 134.075 35.6453 133.712 34.952C133.36 34.248 133.184 33.4427 133.184 32.536ZM140.16 32.568C140.16 32.024 140.054 31.56 139.84 31.176C139.627 30.7813 139.339 30.4827 138.976 30.28C138.614 30.0667 138.224 29.96 137.808 29.96C137.392 29.96 137.008 30.0613 136.656 30.264C136.304 30.4667 136.016 30.7653 135.792 31.16C135.579 31.544 135.472 32.0027 135.472 32.536C135.472 33.0693 135.579 33.5387 135.792 33.944C136.016 34.3387 136.304 34.6427 136.656 34.856C137.019 35.0693 137.403 35.176 137.808 35.176C138.224 35.176 138.614 35.0747 138.976 34.872C139.339 34.6587 139.627 34.36 139.84 33.976C140.054 33.5813 140.16 33.112 140.16 32.568ZM146.844 29.512C147.132 29.0427 147.505 28.6747 147.964 28.408C148.433 28.1413 148.967 28.008 149.564 28.008V30.36H148.972C148.268 30.36 147.735 30.5253 147.372 30.856C147.02 31.1867 146.844 31.7627 146.844 32.584V37H144.604V28.136H146.844V29.512ZM150.497 32.536C150.497 31.64 150.673 30.8453 151.025 30.152C151.387 29.4587 151.878 28.9253 152.497 28.552C153.115 28.1787 153.803 27.992 154.561 27.992C155.137 27.992 155.686 28.12 156.209 28.376C156.731 28.6213 157.147 28.952 157.457 29.368V25.16H159.729V37H157.457V35.688C157.179 36.1253 156.79 36.4773 156.289 36.744C155.787 37.0107 155.206 37.144 154.545 37.144C153.798 37.144 153.115 36.952 152.497 36.568C151.878 36.184 151.387 35.6453 151.025 34.952C150.673 34.248 150.497 33.4427 150.497 32.536ZM157.473 32.568C157.473 32.024 157.366 31.56 157.153 31.176C156.939 30.7813 156.651 30.4827 156.289 30.28C155.926 30.0667 155.537 29.96 155.121 29.96C154.705 29.96 154.321 30.0613 153.969 30.264C153.617 30.4667 153.329 30.7653 153.105 31.16C152.891 31.544 152.785 32.0027 152.785 32.536C152.785 33.0693 152.891 33.5387 153.105 33.944C153.329 34.3387 153.617 34.6427 153.969 34.856C154.331 35.0693 154.715 35.176 155.121 35.176C155.537 35.176 155.926 35.0747 156.289 34.872C156.651 34.6587 156.939 34.36 157.153 33.976C157.366 33.5813 157.473 33.112 157.473 32.568Z" fill="#130B43"/>
<g clip-path="url(#clip0_4102_822)">
<path d="M199.5 19.763V42.263" stroke="#5C5589" stroke-width="1.5" stroke-linecap="round" stroke-linejoin="round"/>
<path d="M210 19.763V42.263" stroke="#5C5589" stroke-width="1.5" stroke-linecap="round" stroke-linejoin="round"/>
<rect x="195" y="23.513" width="19.5" height="5.25" stroke="#5C5589" stroke-width="1.5" stroke-linecap="round" stroke-linejoin="round"/>
<rect x="195" y="34.013" width="19.5" height="5.25" stroke="#5C5589" stroke-width="1.5" stroke-linecap="round" stroke-linejoin="round"/>
<path d="M241.704 25.832V27.64H238.728V37H236.488V27.64H233.512V25.832H241.704ZM245.578 29.512C245.866 29.0427 246.24 28.6747 246.698 28.408C247.168 28.1413 247.701 28.008 248.298 28.008V30.36H247.706C247.002 30.36 246.469 30.5253 246.106 30.856C245.754 31.1867 245.578 31.7627 245.578 32.584V37H243.338V28.136H245.578V29.512ZM249.231 32.536C249.231 31.64 249.407 30.8453 249.759 30.152C250.122 29.4587 250.607 28.9253 251.215 28.552C251.834 28.1787 252.522 27.992 253.279 27.992C253.94 27.992 254.516 28.1253 255.007 28.392C255.508 28.6587 255.908 28.9947 256.207 29.4V28.136H258.463V37H256.207V35.704C255.919 36.12 255.519 36.4667 255.007 36.744C254.506 37.0107 253.924 37.144 253.263 37.144C252.516 37.144 251.834 36.952 251.215 36.568C250.607 36.184 250.122 35.6453 249.759 34.952C249.407 34.248 249.231 33.4427 249.231 32.536ZM256.207 32.568C256.207 32.024 256.1 31.56 255.887 31.176C255.674 30.7813 255.386 30.4827 255.023 30.28C254.66 30.0667 254.271 29.96 253.855 29.96C253.439 29.96 253.055 30.0613 252.703 30.264C252.351 30.4667 252.063 30.7653 251.839 31.16C251.626 31.544 251.519 32.0027 251.519 32.536C251.519 33.0693 251.626 33.5387 251.839 33.944C252.063 34.3387 252.351 34.6427 252.703 34.856C253.066 35.0693 253.45 35.176 253.855 35.176C254.271 35.176 254.66 35.0747 255.023 34.872C255.386 34.6587 255.674 34.36 255.887 33.976C256.1 33.5813 256.207 33.112 256.207 32.568ZM260.075 32.568C260.075 31.6507 260.262 30.8507 260.635 30.168C261.008 29.4747 261.526 28.9413 262.187 28.568C262.848 28.184 263.606 27.992 264.459 27.992C265.558 27.992 266.464 28.2693 267.179 28.824C267.904 29.368 268.39 30.136 268.635 31.128H266.219C266.091 30.744 265.872 30.4453 265.563 30.232C265.264 30.008 264.891 29.896 264.443 29.896C263.803 29.896 263.296 30.1307 262.923 30.6C262.55 31.0587 262.363 31.7147 262.363 32.568C262.363 33.4107 262.55 34.0667 262.923 34.536C263.296 34.9947 263.803 35.224 264.443 35.224C265.35 35.224 265.942 34.8187 266.219 34.008H268.635C268.39 34.968 267.904 35.7307 267.179 36.296C266.454 36.8613 265.547 37.144 264.459 37.144C263.606 37.144 262.848 36.9573 262.187 36.584C261.526 36.2 261.008 35.6667 260.635 34.984C260.262 34.2907 260.075 33.4853 260.075 32.568ZM275.524 37L272.516 33.224V37H270.276V25.16H272.516V31.896L275.492 28.136H278.404L274.5 32.584L278.436 37H275.524ZM283.012 37.144C282.286 37.144 281.636 37.016 281.06 36.76C280.484 36.4933 280.025 36.136 279.684 35.688C279.353 35.24 279.172 34.744 279.14 34.2H281.396C281.438 34.5413 281.604 34.824 281.892 35.048C282.19 35.272 282.558 35.384 282.996 35.384C283.422 35.384 283.753 35.2987 283.988 35.128C284.233 34.9573 284.356 34.7387 284.356 34.472C284.356 34.184 284.206 33.9707 283.908 33.832C283.62 33.6827 283.156 33.5227 282.516 33.352C281.854 33.192 281.31 33.0267 280.884 32.856C280.468 32.6853 280.105 32.424 279.796 32.072C279.497 31.72 279.348 31.2453 279.348 30.648C279.348 30.1573 279.486 29.7093 279.764 29.304C280.052 28.8987 280.457 28.5787 280.98 28.344C281.513 28.1093 282.137 27.992 282.852 27.992C283.908 27.992 284.75 28.2587 285.38 28.792C286.009 29.3147 286.356 30.024 286.42 30.92H284.276C284.244 30.568 284.094 30.2907 283.828 30.088C283.572 29.8747 283.225 29.768 282.788 29.768C282.382 29.768 282.068 29.8427 281.844 29.992C281.63 30.1413 281.524 30.3493 281.524 30.616C281.524 30.9147 281.673 31.144 281.972 31.304C282.27 31.4533 282.734 31.608 283.364 31.768C284.004 31.928 284.532 32.0933 284.948 32.264C285.364 32.4347 285.721 32.7013 286.02 33.064C286.329 33.416 286.489 33.8853 286.5 34.472C286.5 34.984 286.356 35.4427 286.068 35.848C285.79 36.2533 285.385 36.5733 284.852 36.808C284.329 37.032 283.716 37.144 283.012 37.144Z" fill="#5C5589"/>
</g>
<path fill-rule="evenodd" clip-rule="evenodd" d="M331.25 37.75C330.422 37.75 329.75 37.0784 329.75 36.25V28.75C329.75 27.9216 330.422 27.25 331.25 27.25H341.75C342.578 27.25 343.25 27.9216 343.25 28.75V36.25C343.25 37.0784 342.578 37.75 341.75 37.75H340.25V42.25L335.75 37.75H331.25Z" stroke="#5C5589" stroke-width="1.5" stroke-linecap="round" stroke-linejoin="round"/>
<path d="M326.75 31.75L323.75 34.75V30.25H322.25C321.422 30.25 320.75 29.5784 320.75 28.75V21.25C320.75 20.4216 321.422 19.75 322.25 19.75H332.75C333.578 19.75 334.25 20.4216 334.25 21.25V24.25" stroke="#5C5589" stroke-width="1.5" stroke-linecap="round" stroke-linejoin="round"/>
<path d="M373.28 25.832V37H371.04V29.736L368.048 37H366.352L363.344 29.736V37H361.104V25.832H363.648L367.2 34.136L370.752 25.832H373.28ZM383.735 32.376C383.735 32.696 383.713 32.984 383.671 33.24H377.191C377.244 33.88 377.468 34.3813 377.863 34.744C378.257 35.1067 378.743 35.288 379.319 35.288C380.151 35.288 380.743 34.9307 381.095 34.216H383.511C383.255 35.0693 382.764 35.7733 382.039 36.328C381.313 36.872 380.423 37.144 379.367 37.144C378.513 37.144 377.745 36.9573 377.063 36.584C376.391 36.2 375.863 35.6613 375.479 34.968C375.105 34.2747 374.919 33.4747 374.919 32.568C374.919 31.6507 375.105 30.8453 375.479 30.152C375.852 29.4587 376.375 28.9253 377.047 28.552C377.719 28.1787 378.492 27.992 379.367 27.992C380.209 27.992 380.961 28.1733 381.623 28.536C382.295 28.8987 382.812 29.416 383.175 30.088C383.548 30.7493 383.735 31.512 383.735 32.376ZM381.415 31.736C381.404 31.16 381.196 30.7013 380.791 30.36C380.385 30.008 379.889 29.832 379.303 29.832C378.748 29.832 378.279 30.0027 377.895 30.344C377.521 30.6747 377.292 31.1387 377.207 31.736H381.415ZM390.282 28.008C391.338 28.008 392.191 28.344 392.842 29.016C393.492 29.6773 393.818 30.6053 393.818 31.8V37H391.578V32.104C391.578 31.4 391.402 30.8613 391.05 30.488C390.698 30.104 390.218 29.912 389.61 29.912C388.991 29.912 388.5 30.104 388.138 30.488C387.786 30.8613 387.61 31.4 387.61 32.104V37H385.37V28.136H387.61V29.24C387.908 28.856 388.287 28.5573 388.746 28.344C389.215 28.12 389.727 28.008 390.282 28.008ZM398.556 29.976V34.264C398.556 34.5627 398.625 34.7813 398.764 34.92C398.913 35.048 399.158 35.112 399.5 35.112H400.54V37H399.132C397.244 37 396.3 36.0827 396.3 34.248V29.976H395.244V28.136H396.3V25.944H398.556V28.136H400.54V29.976H398.556ZM406.087 37.144C405.234 37.144 404.466 36.9573 403.783 36.584C403.1 36.2 402.562 35.6613 402.167 34.968C401.783 34.2747 401.591 33.4747 401.591 32.568C401.591 31.6613 401.788 30.8613 402.183 30.168C402.588 29.4747 403.138 28.9413 403.831 28.568C404.524 28.184 405.298 27.992 406.151 27.992C407.004 27.992 407.778 28.184 408.471 28.568C409.164 28.9413 409.708 29.4747 410.103 30.168C410.508 30.8613 410.711 31.6613 410.711 32.568C410.711 33.4747 410.503 34.2747 410.087 34.968C409.682 35.6613 409.127 36.2 408.423 36.584C407.73 36.9573 406.951 37.144 406.087 37.144ZM406.087 35.192C406.492 35.192 406.871 35.096 407.223 34.904C407.586 34.7013 407.874 34.4027 408.087 34.008C408.3 33.6133 408.407 33.1333 408.407 32.568C408.407 31.7253 408.183 31.08 407.735 30.632C407.298 30.1733 406.759 29.944 406.119 29.944C405.479 29.944 404.94 30.1733 404.503 30.632C404.076 31.08 403.863 31.7253 403.863 32.568C403.863 33.4107 404.071 34.0613 404.487 34.52C404.914 34.968 405.447 35.192 406.087 35.192ZM414.594 29.512C414.882 29.0427 415.255 28.6747 415.714 28.408C416.183 28.1413 416.717 28.008 417.314 28.008V30.36H416.722C416.018 30.36 415.485 30.5253 415.122 30.856C414.77 31.1867 414.594 31.7627 414.594 32.584V37H412.354V28.136H414.594V29.512ZM419.959 27.08C419.564 27.08 419.233 26.9573 418.967 26.712C418.711 26.456 418.583 26.1413 418.583 25.768C418.583 25.3947 418.711 25.0853 418.967 24.84C419.233 24.584 419.564 24.456 419.959 24.456C420.353 24.456 420.679 24.584 420.935 24.84C421.201 25.0853 421.335 25.3947 421.335 25.768C421.335 26.1413 421.201 26.456 420.935 26.712C420.679 26.9573 420.353 27.08 419.959 27.08ZM421.063 28.136V37H418.823V28.136H421.063ZM428.188 28.008C429.244 28.008 430.097 28.344 430.748 29.016C431.399 29.6773 431.724 30.6053 431.724 31.8V37H429.484V32.104C429.484 31.4 429.308 30.8613 428.956 30.488C428.604 30.104 428.124 29.912 427.516 29.912C426.897 29.912 426.407 30.104 426.044 30.488C425.692 30.8613 425.516 31.4 425.516 32.104V37H423.276V28.136H425.516V29.24C425.815 28.856 426.193 28.5573 426.652 28.344C427.121 28.12 427.633 28.008 428.188 28.008ZM437.326 27.992C437.987 27.992 438.569 28.1253 439.07 28.392C439.571 28.648 439.966 28.984 440.254 29.4V28.136H442.51V37.064C442.51 37.8853 442.345 38.616 442.014 39.256C441.683 39.9067 441.187 40.4187 440.526 40.792C439.865 41.176 439.065 41.368 438.126 41.368C436.867 41.368 435.833 41.0747 435.022 40.488C434.222 39.9013 433.769 39.1013 433.662 38.088H435.886C436.003 38.4933 436.254 38.8133 436.638 39.048C437.033 39.2933 437.507 39.416 438.062 39.416C438.713 39.416 439.241 39.2187 439.646 38.824C440.051 38.44 440.254 37.8533 440.254 37.064V35.688C439.966 36.104 439.566 36.4507 439.054 36.728C438.553 37.0053 437.977 37.144 437.326 37.144C436.579 37.144 435.897 36.952 435.278 36.568C434.659 36.184 434.169 35.6453 433.806 34.952C433.454 34.248 433.278 33.4427 433.278 32.536C433.278 31.64 433.454 30.8453 433.806 30.152C434.169 29.4587 434.654 28.9253 435.262 28.552C435.881 28.1787 436.569 27.992 437.326 27.992ZM440.254 32.568C440.254 32.024 440.147 31.56 439.934 31.176C439.721 30.7813 439.433 30.4827 439.07 30.28C438.707 30.0667 438.318 29.96 437.902 29.96C437.486 29.96 437.102 30.0613 436.75 30.264C436.398 30.4667 436.11 30.7653 435.886 31.16C435.673 31.544 435.566 32.0027 435.566 32.536C435.566 33.0693 435.673 33.5387 435.886 33.944C436.11 34.3387 436.398 34.6427 436.75 34.856C437.113 35.0693 437.497 35.176 437.902 35.176C438.318 35.176 438.707 35.0747 439.07 34.872C439.433 34.6587 439.721 34.36 439.934 33.976C440.147 33.5813 440.254 33.112 440.254 32.568Z" fill="#5C5589"/>
<path d="M484.25 42.25H477.5C477.086 42.25 476.75 41.9142 476.75 41.5V36.25" stroke="#5C5589" stroke-width="1.5" stroke-linecap="round" stroke-linejoin="round"/>
<path d="M484.25 36.25H476.75V30.25" stroke="#5C5589" stroke-width="1.5" stroke-linecap="round" stroke-linejoin="round"/>
<path d="M488.75 30.25H476.75V25C476.75 24.5858 477.086 24.25 477.5 24.25H488C488.414 24.25 488.75 24.5858 488.75 25V30.25" stroke="#5C5589" stroke-width="1.5" stroke-linecap="round" stroke-linejoin="round"/>
<path d="M477.5 24.25V22C477.5 21.5858 477.836 21.25 478.25 21.25H480.5C480.914 21.25 481.25 21.5858 481.25 22V24.25" stroke="#5C5589" stroke-width="1.5" stroke-linecap="round" stroke-linejoin="round"/>
<path d="M484.25 24.25V22C484.25 21.5858 484.586 21.25 485 21.25H487.25C487.664 21.25 488 21.5858 488 22V24.25" stroke="#5C5589" stroke-width="1.5" stroke-linecap="round" stroke-linejoin="round"/>
<path d="M488 36.25V34C488 33.5858 488.336 33.25 488.75 33.25H491C491.414 33.25 491.75 33.5858 491.75 34V36.25" stroke="#5C5589" stroke-width="1.5" stroke-linecap="round" stroke-linejoin="round"/>
<path d="M494.75 36.25V34C494.75 33.5858 495.086 33.25 495.5 33.25H497.75C498.164 33.25 498.5 33.5858 498.5 34V36.25" stroke="#5C5589" stroke-width="1.5" stroke-linecap="round" stroke-linejoin="round"/>
<path fill-rule="evenodd" clip-rule="evenodd" d="M487.25 37C487.25 36.5858 487.586 36.25 488 36.25H498.5C498.914 36.25 499.25 36.5858 499.25 37V41.5C499.25 41.9142 498.914 42.25 498.5 42.25H488C487.586 42.25 487.25 41.9142 487.25 41.5V37Z" stroke="#5C5589" stroke-width="1.5" stroke-linecap="round" stroke-linejoin="round"/>
<path d="M516.56 31.4C516.56 30.3013 516.805 29.32 517.296 28.456C517.797 27.5813 518.475 26.904 519.328 26.424C520.192 25.9333 521.157 25.688 522.224 25.688C523.472 25.688 524.565 26.008 525.504 26.648C526.443 27.288 527.099 28.1733 527.472 29.304H524.896C524.64 28.7707 524.277 28.3707 523.808 28.104C523.349 27.8373 522.816 27.704 522.208 27.704C521.557 27.704 520.976 27.8587 520.464 28.168C519.963 28.4667 519.568 28.8933 519.28 29.448C519.003 30.0027 518.864 30.6533 518.864 31.4C518.864 32.136 519.003 32.7867 519.28 33.352C519.568 33.9067 519.963 34.3387 520.464 34.648C520.976 34.9467 521.557 35.096 522.208 35.096C522.816 35.096 523.349 34.9627 523.808 34.696C524.277 34.4187 524.64 34.0133 524.896 33.48H527.472C527.099 34.6213 526.443 35.512 525.504 36.152C524.576 36.7813 523.483 37.096 522.224 37.096C521.157 37.096 520.192 36.856 519.328 36.376C518.475 35.8853 517.797 35.208 517.296 34.344C516.805 33.48 516.56 32.4987 516.56 31.4ZM533.321 37.144C532.468 37.144 531.7 36.9573 531.017 36.584C530.335 36.2 529.796 35.6613 529.401 34.968C529.017 34.2747 528.825 33.4747 528.825 32.568C528.825 31.6613 529.023 30.8613 529.417 30.168C529.823 29.4747 530.372 28.9413 531.065 28.568C531.759 28.184 532.532 27.992 533.385 27.992C534.239 27.992 535.012 28.184 535.705 28.568C536.399 28.9413 536.943 29.4747 537.337 30.168C537.743 30.8613 537.945 31.6613 537.945 32.568C537.945 33.4747 537.737 34.2747 537.321 34.968C536.916 35.6613 536.361 36.2 535.657 36.584C534.964 36.9573 534.185 37.144 533.321 37.144ZM533.321 35.192C533.727 35.192 534.105 35.096 534.457 34.904C534.82 34.7013 535.108 34.4027 535.321 34.008C535.535 33.6133 535.641 33.1333 535.641 32.568C535.641 31.7253 535.417 31.08 534.969 30.632C534.532 30.1733 533.993 29.944 533.353 29.944C532.713 29.944 532.175 30.1733 531.737 30.632C531.311 31.08 531.097 31.7253 531.097 32.568C531.097 33.4107 531.305 34.0613 531.721 34.52C532.148 34.968 532.681 35.192 533.321 35.192ZM544.5 28.008C545.556 28.008 546.41 28.344 547.06 29.016C547.711 29.6773 548.036 30.6053 548.036 31.8V37H545.796V32.104C545.796 31.4 545.62 30.8613 545.268 30.488C544.916 30.104 544.436 29.912 543.828 29.912C543.21 29.912 542.719 30.104 542.356 30.488C542.004 30.8613 541.828 31.4 541.828 32.104V37H539.588V28.136H541.828V29.24C542.127 28.856 542.506 28.5573 542.964 28.344C543.434 28.12 543.946 28.008 544.5 28.008ZM552.775 29.976V34.264C552.775 34.5627 552.844 34.7813 552.983 34.92C553.132 35.048 553.377 35.112 553.719 35.112H554.759V37H553.351C551.463 37 550.519 36.0827 550.519 34.248V29.976H549.463V28.136H550.519V25.944H552.775V28.136H554.759V29.976H552.775ZM558.61 29.512C558.898 29.0427 559.271 28.6747 559.73 28.408C560.199 28.1413 560.732 28.008 561.33 28.008V30.36H560.738C560.034 30.36 559.5 30.5253 559.138 30.856C558.786 31.1867 558.61 31.7627 558.61 32.584V37H556.37V28.136H558.61V29.512ZM563.974 27.08C563.58 27.08 563.249 26.9573 562.982 26.712C562.726 26.456 562.598 26.1413 562.598 25.768C562.598 25.3947 562.726 25.0853 562.982 24.84C563.249 24.584 563.58 24.456 563.974 24.456C564.369 24.456 564.694 24.584 564.95 24.84C565.217 25.0853 565.35 25.3947 565.35 25.768C565.35 26.1413 565.217 26.456 564.95 26.712C564.694 26.9573 564.369 27.08 563.974 27.08ZM565.078 28.136V37H562.838V28.136H565.078ZM569.532 29.432C569.82 29.0053 570.214 28.6587 570.716 28.392C571.228 28.1253 571.809 27.992 572.46 27.992C573.217 27.992 573.9 28.1787 574.508 28.552C575.126 28.9253 575.612 29.4587 575.964 30.152C576.326 30.8347 576.508 31.6293 576.508 32.536C576.508 33.4427 576.326 34.248 575.964 34.952C575.612 35.6453 575.126 36.184 574.508 36.568C573.9 36.952 573.217 37.144 572.46 37.144C571.798 37.144 571.217 37.016 570.716 36.76C570.225 36.4933 569.83 36.152 569.532 35.736V37H567.292V25.16H569.532V29.432ZM574.22 32.536C574.22 32.0027 574.108 31.544 573.884 31.16C573.67 30.7653 573.382 30.4667 573.02 30.264C572.668 30.0613 572.284 29.96 571.868 29.96C571.462 29.96 571.078 30.0667 570.716 30.28C570.364 30.4827 570.076 30.7813 569.852 31.176C569.638 31.5707 569.532 32.0347 569.532 32.568C569.532 33.1013 569.638 33.5653 569.852 33.96C570.076 34.3547 570.364 34.6587 570.716 34.872C571.078 35.0747 571.462 35.176 571.868 35.176C572.284 35.176 572.668 35.0693 573.02 34.856C573.382 34.6427 573.67 34.3387 573.884 33.944C574.108 33.5493 574.22 33.08 574.22 32.536ZM586.503 28.136V37H584.247V35.88C583.959 36.264 583.581 36.568 583.111 36.792C582.653 37.0053 582.151 37.112 581.607 37.112C580.914 37.112 580.301 36.968 579.767 36.68C579.234 36.3813 578.813 35.9493 578.503 35.384C578.205 34.808 578.055 34.1253 578.055 33.336V28.136H580.295V33.016C580.295 33.72 580.471 34.264 580.823 34.648C581.175 35.0213 581.655 35.208 582.263 35.208C582.882 35.208 583.367 35.0213 583.719 34.648C584.071 34.264 584.247 33.72 584.247 33.016V28.136H586.503ZM591.321 29.976V34.264C591.321 34.5627 591.391 34.7813 591.529 34.92C591.679 35.048 591.924 35.112 592.265 35.112H593.305V37H591.897C590.009 37 589.065 36.0827 589.065 34.248V29.976H588.009V28.136H589.065V25.944H591.321V28.136H593.305V29.976H591.321ZM603.157 32.376C603.157 32.696 603.135 32.984 603.093 33.24H596.613C596.666 33.88 596.89 34.3813 597.285 34.744C597.679 35.1067 598.165 35.288 598.741 35.288C599.573 35.288 600.165 34.9307 600.517 34.216H602.933C602.677 35.0693 602.186 35.7733 601.461 36.328C600.735 36.872 599.845 37.144 598.789 37.144C597.935 37.144 597.167 36.9573 596.485 36.584C595.813 36.2 595.285 35.6613 594.901 34.968C594.527 34.2747 594.34 33.4747 594.34 32.568C594.34 31.6507 594.527 30.8453 594.901 30.152C595.274 29.4587 595.797 28.9253 596.469 28.552C597.141 28.1787 597.914 27.992 598.789 27.992C599.631 27.992 600.383 28.1733 601.045 28.536C601.717 28.8987 602.234 29.416 602.597 30.088C602.97 30.7493 603.157 31.512 603.157 32.376ZM600.837 31.736C600.826 31.16 600.618 30.7013 600.213 30.36C599.807 30.008 599.311 29.832 598.725 29.832C598.17 29.832 597.701 30.0027 597.317 30.344C596.943 30.6747 596.714 31.1387 596.629 31.736H600.837Z" fill="#5C5589"/>
<defs>
<filter id="filter0_d_4102_822" x="0" y="0" width="66" height="66" filterUnits="userSpaceOnUse" color-interpolation-filters="sRGB">
<feFlood flood-opacity="0" result="BackgroundImageFix"/>
<feColorMatrix in="SourceAlpha" type="matrix" values="0 0 0 0 0 0 0 0 0 0 0 0 0 0 0 0 0 0 127 0" result="hardAlpha"/>
<feOffset dy="2"/>
<feGaussianBlur stdDeviation="6"/>
<feColorMatrix type="matrix" values="0 0 0 0 0.309804 0 0 0 0 0.448157 0 0 0 0 0.803922 0 0 0 0.8 0"/>
<feBlend mode="normal" in2="BackgroundImageFix" result="effect1_dropShadow_4102_822"/>
<feBlend mode="normal" in="SourceGraphic" in2="effect1_dropShadow_4102_822" result="shape"/>
</filter>
<linearGradient id="paint0_linear_4102_822" x1="7.62869" y1="22" x2="7.62869" y2="27.2574" gradientUnits="userSpaceOnUse">
<stop stop-color="#2200FF"/>
<stop offset="1" stop-color="#9E00FF"/>
</linearGradient>
<linearGradient id="paint1_linear_4102_822" x1="17.6287" y1="51" x2="17.6287" y2="56.2574" gradientUnits="userSpaceOnUse">
<stop stop-color="#2200FF"/>
<stop offset="1" stop-color="#9E00FF"/>
</linearGradient>
<linearGradient id="paint2_linear_4102_822" x1="54.943" y1="47" x2="54.943" y2="54.8861" gradientUnits="userSpaceOnUse">
<stop stop-color="#2200FF"/>
<stop offset="1" stop-color="#9E00FF"/>
</linearGradient>
<linearGradient id="paint3_linear_4102_822" x1="57.0353" y1="10" x2="57.0353" y2="17.0098" gradientUnits="userSpaceOnUse">
<stop stop-color="#2200FF"/>
<stop offset="1" stop-color="#9E00FF"/>
</linearGradient>
<linearGradient id="paint4_linear_4102_822" x1="5" y1="36" x2="5" y2="45" gradientUnits="userSpaceOnUse">
<stop stop-color="#2200FF"/>
<stop offset="1" stop-color="#9E00FF"/>
</linearGradient>
<linearGradient id="paint5_linear_4102_822" x1="27.2553" y1="3.37805" x2="27.2553" y2="7.7592" gradientUnits="userSpaceOnUse">
<stop stop-color="#2200FF"/>
<stop offset="1" stop-color="#9E00FF"/>
</linearGradient>
<linearGradient id="paint6_linear_4102_822" x1="33" y1="10" x2="33" y2="52" gradientUnits="userSpaceOnUse">
<stop stop-color="#2200FF"/>
<stop offset="1" stop-color="#9E00FF"/>
</linearGradient>
<clipPath id="clip0_4102_822">
<rect width="95" height="24" fill="white" transform="translate(193 19)"/>
</clipPath>
</defs>
</svg>
